<svg xmlns="http://www.w3.org/2000/svg" fill="none" height="24" viewBox="0 0 24 24" width="24"><path clip-rule="evenodd" d="m6.5 2.5c0-1.10457.89543-2 2-2h7c1.1046 0 2 .89543 2 2v2.5h4.25c.6904 0 1.25.55964 1.25 1.25s-.5596 1.25-1.25 1.25h-1.3971l-.7422 12.6174c-.0621 1.0572-.9376 1.8826-1.9965 1.8826h-11.22839c-1.05895 0-1.93436-.8254-1.99655-1.8826l-.7422-12.6174h-1.39706c-.69036 0-1.25-.55964-1.25-1.25s.55964-1.25 1.25-1.25h4.25zm2.5 2.5h6v-2h-6zm0 5.5c.48816-.4882 1.2796-.4882 1.7678 0l1.2322 1.2322 1.2322-1.2322c.4882-.4882 1.2796-.4882 1.7678 0s.4882 1.2796 0 1.7678l-1.2322 1.2322 1.2322 1.2322c.4882.4882.4882 1.2796 0 1.7678s-1.2796.4882-1.7678 0l-1.2322-1.2322-1.2322 1.2322c-.4882.4882-1.27964.4882-1.7678 0-.48815-.4882-.48816-1.2796 0-1.7678l1.2322-1.2322-1.2322-1.2322c-.48816-.4882-.48816-1.2796 0-1.7678z" fill="#ffffff" fill-rule="evenodd"/></svg>